<svg id="Layer_1" data-name="Layer 1" xmlns="http://www.w3.org/2000/svg" xmlns:xlink="http://www.w3.org/1999/xlink" viewBox="0 0 484.3 1311"><defs><style>.cls-1{fill:url(#linear-gradient);}.cls-2{fill:url(#linear-gradient-2);}</style><linearGradient id="linear-gradient" x1="289.54" y1="551.69" x2="649.54" y2="883.69" gradientUnits="userSpaceOnUse"><stop offset="0" stop-color="#ee7724"/><stop offset="0.56" stop-color="#ed7524"/><stop offset="0.76" stop-color="#e86e26"/><stop offset="0.91" stop-color="#e06329"/><stop offset="1" stop-color="#d8562c"/></linearGradient><linearGradient id="linear-gradient-2" x1="-134.96" y1="1011.99" x2="225.04" y2="1343.99" xlink:href="#linear-gradient"/></defs><title>WOF-Institute-Logo-Icon-Orange</title><g id="layer101"><path class="cls-1" d="M389.2,1349.3l-27.3-.3.8-11.8c4.9-70.2-13.1-129.4-63-207.2-11.4-17.8-26.8-39.7-60.2-85.5-45.6-62.6-67.9-95.2-88.2-129C103.2,835.4,70.8,755.7,51.4,670L47,650.5V535.4c0-63.3.3-200.9.7-305.7L48.3,39H525.8l.6,303.8c.3,167,.7,328.2,1,358.1.3,46.9.1,54.2-1.1,52.5-.8-1-4-6.9-7.3-13s-16.4-29.5-29.2-52-28.3-49.9-34.3-60.9c-54.2-99.8-81.1-187.8-86.5-283.8-.6-10.6-1.4-24.1-1.8-30.2l-.7-11-6.3,10c-14.6,23-28.2,54.4-34.7,80-7.5,29.4-10,53.5-9.2,87.5,1.1,41.4,7.7,78.7,22.6,128.4,18.7,61.7,49.5,130.1,112.6,250.1,38.4,72.9,58.3,113.6,70.9,145.3l5.6,14,.7,166.1.6,166.1-56.4-.2C441.9,1349.6,404.2,1349.4,389.2,1349.3Zm28.8-16.9c51.5-40.1,79.9-81.7,88.7-129.9,2.3-12.5,2.3-40.2,0-55.3-3.8-24.1-12.5-53.2-25.2-83.6-13.1-31.4-28.2-61.9-70-140.6-30.7-58.1-59.6-116.8-77.2-157-58-132.6-87.9-253.8-97.5-395-1.6-24.3-1.6-110.6,0-135,4.7-69.4,13.8-139.8,24.8-191,.6-2.8-5.1,4.8-22.3,29.5-54.8,78.9-97.6,161.8-122.8,238.2A631.6,631.6,0,0,0,86.4,455c-2.4,24.2-2.4,73.9,0,98,11.2,112.9,50.4,213.9,131.9,340,16.5,25.5,34.4,51.4,74.6,108,57.7,81.1,80.5,116.3,99,153,33.8,66.9,39.6,118.3,19,168a165.8,165.8,0,0,1-8.9,17.9l-4.9,8.2,5.2-3.8C405.2,1342.3,412.2,1336.9,418,1332.4Z" transform="translate(-45 -39)"/><path class="cls-2" d="M202.5,1347.9c-42.4-.3-95.1-.7-117.2-.8L45,1347V1213.2c0-73.6.3-149.4.7-168.5l.6-34.6,7.5,12.2c14.2,23.4,36.8,53.3,61.3,81.3,6.7,7.6,26.7,29.7,44.4,48.9s37.1,40.6,43,47.5c42.1,49.1,64.5,87.8,74.9,129.6,3,11.9,4.1,19.5,3,19.2C279.9,1348.7,244.9,1348.3,202.5,1347.9Z" transform="translate(-45 -39)"/></g></svg>